<svg width="37" height="37" viewBox="0 0 37 37" fill="none" xmlns="http://www.w3.org/2000/svg">
<path d="M18.5 24.4167C20.9508 24.4167 22.9375 22.43 22.9375 19.9792C22.9375 17.5285 20.9508 15.5417 18.5 15.5417C16.0492 15.5417 14.0625 17.5285 14.0625 19.9792C14.0625 22.43 16.0492 24.4167 18.5 24.4167Z" stroke="white" stroke-width="1.5"/>
<path d="M15.2135 31.8126H21.7869C26.4034 31.8126 28.7123 31.8126 30.3705 30.7254C31.0861 30.2567 31.7024 29.6515 32.1839 28.9445C33.2918 27.3174 33.2918 25.0498 33.2918 20.5177C33.2918 15.9855 33.2918 13.7179 32.1839 12.0908C31.7024 11.3838 31.0861 10.7786 30.3705 10.3099C29.3055 9.61028 27.9713 9.3603 25.9285 9.27155C24.9538 9.27155 24.1151 8.54676 23.9243 7.60749C23.7784 6.91948 23.3996 6.30291 22.8516 5.862C22.3037 5.42108 21.6204 5.18285 20.9171 5.18757H16.0832C14.6218 5.18757 13.363 6.2008 13.0761 7.60749C12.8852 8.54676 12.0466 9.27155 11.0718 9.27155C9.03054 9.3603 7.69633 9.61176 6.62985 10.3099C5.91473 10.7788 5.299 11.3839 4.81787 12.0908C3.7085 13.7179 3.7085 15.984 3.7085 20.5177C3.7085 25.0513 3.7085 27.3159 4.81639 28.9445C5.29564 29.6485 5.91098 30.2535 6.62985 30.7254C8.288 31.8126 10.597 31.8126 15.2135 31.8126Z" stroke="white" stroke-width="1.5"/>
<path d="M28.8542 15.5417H27.375" stroke="white" stroke-width="1.5" stroke-linecap="round"/>
</svg>
