<svg width="51" height="51" viewBox="0 0 51 51" fill="none" xmlns="http://www.w3.org/2000/svg">
<path d="M25.5001 7.22794C25.9155 7.22794 26.3138 7.39294 26.6075 7.68666C26.9013 7.98037 27.0663 8.37874 27.0663 8.79411C27.0663 9.20949 26.9013 9.60785 26.6075 9.90157C26.3138 10.1953 25.9155 10.3603 25.5001 10.3603C21.4848 10.3603 17.6339 11.9554 14.7947 14.7946C11.9555 17.6339 10.3604 21.4847 10.3604 25.5C10.3604 29.5153 11.9555 33.3661 14.7947 36.2054C17.6339 39.0446 21.4848 40.6397 25.5001 40.6397C25.9155 40.6397 26.3138 40.8047 26.6075 41.0984C26.9013 41.3921 27.0663 41.7905 27.0663 42.2059C27.0663 42.6213 26.9013 43.0196 26.6075 43.3133C26.3138 43.607 25.9155 43.772 25.5001 43.772C20.654 43.772 16.0065 41.847 12.5798 38.4203C9.15311 34.9936 7.22803 30.346 7.22803 25.5C7.22803 20.6539 9.15311 16.0064 12.5798 12.5797C16.0065 9.15302 20.654 7.22794 25.5001 7.22794Z" fill="white"/>
<path d="M34.8349 20.342C34.5582 20.0452 34.4076 19.6525 34.4148 19.2467C34.4219 18.841 34.5863 18.4539 34.8732 18.1669C35.1602 17.8799 35.5473 17.7156 35.9531 17.7084C36.3588 17.7013 36.7515 17.8519 37.0484 18.1285L43.3131 24.3932C43.6064 24.6869 43.7711 25.085 43.7711 25.5C43.7711 25.915 43.6064 26.3131 43.3131 26.6068L37.0484 32.8715C36.905 33.0253 36.7321 33.1488 36.54 33.2344C36.3479 33.32 36.1405 33.366 35.9302 33.3697C35.7199 33.3734 35.511 33.3347 35.316 33.256C35.121 33.1772 34.9438 33.0599 34.7951 32.9112C34.6464 32.7625 34.5291 32.5853 34.4504 32.3903C34.3716 32.1953 34.3329 31.9864 34.3366 31.7761C34.3403 31.5658 34.3864 31.3585 34.472 31.1663C34.5576 30.9742 34.681 30.8013 34.8349 30.6579L38.4266 27.0662H21.324C20.9086 27.0662 20.5103 26.9012 20.2165 26.6074C19.9228 26.3137 19.7578 25.9154 19.7578 25.5C19.7578 25.0846 19.9228 24.6863 20.2165 24.3925C20.5103 24.0988 20.9086 23.9338 21.324 23.9338H38.4266L34.8349 20.342Z" fill="white"/>
</svg>
