<?xml version="1.0" encoding="iso-8859-1"?>
<!-- Uploaded to: SVG Repo, www.svgrepo.com, Generator: SVG Repo Mixer Tools -->
<svg fill="#000000" height="800px" width="800px" version="1.1" id="Capa_1" xmlns="http://www.w3.org/2000/svg" xmlns:xlink="http://www.w3.org/1999/xlink" 
	 viewBox="0 0 22.597 22.597" xml:space="preserve">
<g>
	<g>
		<path d="M21.938,13.466c-0.182-0.449-0.525-0.782-0.938-0.958c-0.416-0.175-0.894-0.192-1.346-0.011V12.5
			c-0.526,0.211-0.59,0.467-0.692,0.87c-0.024,0.092-0.049,0.191-0.084,0.31v0.002c-0.059,0.188-0.124,0.37-0.194,0.548l0,0
			l-0.041,0.109l-0.044,0.103v0.004c-0.339,0.792-0.802,1.53-1.376,2.183c-0.11,0.124-0.228,0.249-0.35,0.368
			c-0.738,0.738-1.632,1.344-2.662,1.759v0.002h-0.002c-2.061,0.833-4.26,0.753-6.153-0.053c-1.899-0.804-3.487-2.328-4.323-4.389
			l0,0l-0.002-0.001l-0.026-0.069c-0.802-2.039-0.716-4.214,0.081-6.085c0.8-1.897,2.329-3.488,4.388-4.321l0,0
			c1.709-0.688,3.593-0.756,5.317-0.246c0.334,0.099,0.666,0.221,0.986,0.361c0.319,0.144,0.633,0.306,0.93,0.488h0.005v0.005
			c0.187,0.115,0.33,0.177,0.48,0.191c0.155,0.017,0.312-0.027,0.534-0.116c0.33-0.132,0.596-0.354,0.782-0.623
			c0.038-0.053,0.071-0.109,0.1-0.165c0.033-0.055,0.06-0.112,0.084-0.171V3.563V3.56c0.075-0.176,0.118-0.364,0.13-0.55
			c0-0.034,0.003-0.073,0-0.109c0.003-0.226-0.037-0.449-0.125-0.66V2.235c-0.066-0.168-0.14-0.275-0.23-0.368
			c-0.094-0.091-0.204-0.154-0.35-0.242c-0.211-0.123-0.428-0.24-0.651-0.35l-0.133-0.064l0,0l-0.129-0.062H15.9V1.148
			c-1.137-0.524-2.354-0.86-3.612-0.986c-0.238-0.025-0.485-0.04-0.735-0.049c-1.517-0.051-3.06,0.208-4.552,0.812H6.997
			L6.992,0.927c-2.86,1.157-4.983,3.37-6.104,6.006c-1.106,2.613-1.224,5.646-0.097,8.492l0.027,0.069l0,0l0,0l0.003,0.002l0,0
			c1.159,2.865,3.369,4.985,6.004,6.103s5.698,1.23,8.562,0.072c2.169-0.879,3.917-2.36,5.118-4.173
			c0.232-0.353,0.45-0.72,0.641-1.096c0.194-0.375,0.364-0.761,0.515-1.155v-0.003l0,0c0.069-0.189,0.136-0.377,0.193-0.565
			l0.037-0.113l0,0l0.034-0.111v-0.001V14.45c0.055-0.187,0.099-0.334,0.106-0.481c0.011-0.153-0.015-0.306-0.093-0.501
			L21.938,13.466z"/>
		<path d="M22.504,6.836L22.504,6.836l-0.069-0.168l-0.069-0.17V6.496c-0.133-0.327-0.387-0.572-0.693-0.701l0,0
			c-0.304-0.131-0.661-0.143-0.989-0.009H20.68l-9.577,3.873l-0.002,0.004c-0.329,0.134-0.57,0.387-0.703,0.693
			c-0.129,0.304-0.14,0.658-0.012,0.989l0,0l0.071,0.168l0.069,0.168v0.001c0.138,0.331,0.39,0.575,0.692,0.703
			c0.309,0.13,0.662,0.145,0.992,0.011l0,0l9.579-3.875h0.005V8.519c0.327-0.133,0.571-0.391,0.698-0.693
			C22.622,7.52,22.637,7.167,22.504,6.836z"/>
	</g>
	<g>
	</g>
	<g>
	</g>
	<g>
	</g>
	<g>
	</g>
	<g>
	</g>
	<g>
	</g>
	<g>
	</g>
	<g>
	</g>
	<g>
	</g>
	<g>
	</g>
	<g>
	</g>
	<g>
	</g>
	<g>
	</g>
	<g>
	</g>
	<g>
	</g>
</g>
</svg>